<svg width="16" height="16" viewBox="0 0 16 16" xmlns="http://www.w3.org/2000/svg" fill="currentColor"><path d="M3 2.5C2.31 2.5 1.75 3.06 1.75 3.75C1.75 4.44 2.31 5 3 5C3.69 5 4.25 4.44 4.25 3.75C4.25 3.06 3.69 2.5 3 2.5ZM5.5 3.25C5.224 3.25 5 3.474 5 3.75C5 4.026 5.224 4.25 5.5 4.25H13C13.276 4.25 13.5 4.026 13.5 3.75C13.5 3.474 13.276 3.25 13 3.25H5.5ZM3 6.75C2.31 6.75 1.75 7.31 1.75 8C1.75 8.69 2.31 9.25 3 9.25C3.69 9.25 4.25 8.69 4.25 8C4.25 7.31 3.69 6.75 3 6.75ZM5.5 7.5C5.224 7.5 5 7.724 5 8C5 8.276 5.224 8.5 5.5 8.5H13C13.276 8.5 13.5 8.276 13.5 8C13.5 7.724 13.276 7.5 13 7.5H5.5ZM3 11C2.31 11 1.75 11.56 1.75 12.25C1.75 12.94 2.31 13.5 3 13.5C3.69 13.5 4.25 12.94 4.25 12.25C4.25 11.56 3.69 11 3 11ZM5.5 11.75C5.224 11.75 5 11.974 5 12.25C5 12.526 5.224 12.75 5.5 12.75H10.5C10.776 12.75 11 12.526 11 12.25C11 11.974 10.776 11.75 10.5 11.75H5.5Z"/></svg>
