<svg width="16" height="16" viewBox="0 0 16 16" xmlns="http://www.w3.org/2000/svg" fill="currentColor"><path d="M6.5 2A4.5 4.5 0 1 0 9.95 9.39L12.8 12.24C12.995 12.435 13.312 12.435 13.507 12.24C13.702 12.045 13.702 11.728 13.507 11.533L10.657 8.683C10.878 8.036 11 7.342 11 6.62V6.5A4.5 4.5 0 0 0 6.5 2ZM6.5 3A3.5 3.5 0 1 1 3 6.5A3.5 3.5 0 0 1 6.5 3ZM5.5 6C5.224 6 5 6.224 5 6.5C5 6.776 5.224 7 5.5 7H7.5C7.776 7 8 6.776 8 6.5C8 6.224 7.776 6 7.5 6H5.5ZM11.25 4.25C10.974 4.25 10.75 4.474 10.75 4.75C10.75 5.026 10.974 5.25 11.25 5.25H12.543L11.396 6.396C11.201 6.591 11.201 6.909 11.396 7.104C11.591 7.3 11.909 7.3 12.104 7.104L13.25 5.957V7.25C13.25 7.526 13.474 7.75 13.75 7.75C14.026 7.75 14.25 7.526 14.25 7.25V4.75C14.25 4.474 14.026 4.25 13.75 4.25H11.25Z"/></svg>
