<svg width="16" height="16" viewBox="0 0 16 16" xmlns="http://www.w3.org/2000/svg" fill="#C5C5C5"><path fill-rule="evenodd" clip-rule="evenodd" d="M2.58722 10.1357C1.80426 9.3566 1.80426 8.0934 2.58722 7.31428L7.32688 2.59785C7.70082 2.22574 8.20735 2.01572 8.73617 2.01353L11.9867 2.00002C13.1029 1.99538 14.008 2.89877 13.9999 4.00947L13.9755 7.3725C13.9717 7.89662 13.7608 8.3982 13.3884 8.76882L8.71865 13.4157C7.93569 14.1948 6.66627 14.1948 5.88331 13.4157L2.58722 10.1357ZM11 6C11.5523 6 12 5.55228 12 5C12 4.44772 11.5523 4 11 4C10.4477 4 10 4.44772 10 5C10 5.55228 10.4477 6 11 6Z"/></svg>
